<svg id="Layer_1" data-name="Layer 1" xmlns="http://www.w3.org/2000/svg" viewBox="0 0 374.82 428.48"><defs><style>.cls-1{fill:#de6c4d;}</style></defs><title>Artboard 1</title><path class="cls-1" d="M368.69,309.67c-8-8.16-16.15-16.16-24.19-24.27-9.7-9.79-13.7-9.81-2.12-26.62,27.6-40.07,36.56-84.32,24.48-132C338.58,15.17,211.33-33,116.12,31.82c-15,10.18-15,10.27-27.8-1.85-9.2-8.73-17.88-18-27.31-26.5C55-1.93,49-.79,45,5.25c-2.71,4.19-3.12,9,.25,12.33,7.63,7.45,3.84,13-1.33,19.51C12,77.64-1.19,123.86.08,175.36c2.2,89,68.45,175.22,164.92,195.48,16.69,3.51,18.73,6.07,17.26,23-1,11.26-1.83,12.13-14.23,12.54-8.24.27-16.5-.08-24.74.29-7.08.31-12.44,3.48-12.42,11.4,0,8.4,6,10.36,13,10.39,16.5.08,33,0,49.49,0v0q23.81,0,47.59,0c6.83,0,12.89-1.4,13.83-9.68.81-7.19-3.86-11.68-13.41-12.25a214.94,214.94,0,0,0-24.74-.08c-9.44.54-12.47-4.07-11.85-12.63a58.56,58.56,0,0,0,0-7.61c-.46-8.1,3.53-11.4,11.38-11.41,8.24,0,16.65.44,24.67-1,37.28-6.78,71.52-20.72,100.8-45.38,4.25-3.59,7.79-6.45,12.75-1.21,5.49,5.8,11.57,8.38,17.6.81C377.66,320.88,373.89,315,368.69,309.67ZM308.51,82.56c6.1-6.47,10.48-4.94,14.74,2,6.95,11.24,13.72,22.55,16.55,32,1.64,6.91.1,9.57-2.2,11.88-7.09,7.17-14.19,14.34-21.39,21.4-3.44,3.37-6.09,2.72-9-1.34-7-9.69-14.34-19.14-21.87-28.42-4.29-5.29-4.79-9.71.46-14.7Q297.45,94.26,308.51,82.56Zm5,169c-5.27,2.17-8.22-4.51-11.82-7.7-4.23-3.75-8.11-7.9-12.08-11.94-11.12-11.31-11.11-11.33.63-23.25,16.38-16.65,17.11-16.53,23.09,5.67,1.95,7.21,5.73,14.18,3.41,22.17C316.26,241.69,319.81,249,313.55,251.6ZM242.06,115.7c-9.63,10.07-19.52,19.89-29.47,29.64-1.2,1.18-3.36,1.38-5.12,2-1.79-1.08-3.66-1.78-5-3Q188.93,131,175.56,117.47c-3.14-3.17-3.39-6.58-.13-9.94a26.27,26.27,0,0,1,2.63-2.74c9.35-7.17,14.95-23.29,27-21.62,14,1.94,24.26,15.16,35.53,24.34C243.3,109.74,244.7,112.94,242.06,115.7Zm13.61,19.8c4.26-4.35,8.47-5.72,12.65-.26q11.54,15.06,22.73,30.41c1.08,1.47,1.49,3.43,2.4,5.61-1.48,1.9-2.94,3.9-4.53,5.79-24.69,29.48-24.69,29.48-51.6,2.18-1.78-1.8-3.47-3.72-5.4-5.36-5.45-4.6-6-9-.52-14.23C239.67,151.79,247.69,143.65,255.67,135.5Zm-67.9,25.94c1.21,1.24,1.67,3.21,2.68,5.24a64,64,0,0,1-4.53,5.95c-4.78,5-9.68,9.9-14.61,14.75C150.89,207.49,156.73,206,139,184.94c-19-22.51-18.44-23,2.46-43.49,2.69-2.65,5.37-5.32,8.18-7.83,3.26-2.91,7-3.27,10.13-.2C169.22,142.62,178.53,152,187.77,161.44ZM135,215.37c2.19,2.8,2.27,5.79-.37,8.45q-14.64,14.75-29.36,29.4a19.78,19.78,0,0,1-3.56,2.21c-1.3-.94-3-1.72-4.1-3-9-10.69-15.21-23-20.52-35.84-1.79-4.31-1.56-8.77,1.91-12.32,7.46-7.67,15.07-15.19,22.63-22.76,3.16-3.16,5.56-1.43,7.71,1.28Q122.16,199,135,215.37Zm-2.25,43.52c7.2-7.06,12.86-18.39,22.39-19.65,9.07-1.2,14.54,10.94,22.69,15.77,4.34,2.57,8.14,6,12.26,9,.53.39,1,.78,1.51,1.19a7.13,7.13,0,0,1,2.7,4.77,14.57,14.57,0,0,1-1.68,3.32c-2.07,2.4-4.32,4.65-6.51,6.93-21.82,22.68-23.62,22.91-50.63,6.31C116.6,275,116.46,274.82,132.7,258.89Zm42.54-35.27a4.45,4.45,0,0,1-.13-6.73c10.15-10.36,20.47-20.56,30.83-30.72.74-.73,2.3-.62,3.53-.92,1.1.5,2.49.75,3.32,1.57,9.87,9.76,19.74,19.52,29.4,29.48,2.58,2.66,1.75,5.75-.76,8.34a61.51,61.51,0,0,1-5.28,5.42c-8.2,6.58-13.78,21.05-24.12,19.17C197.33,246.57,186.8,233.34,175.24,223.62Zm24.68,75.25c5-5.58,10.53-10.64,16-15.74,2.77-2.57,5.82-1,8.71.15,4.64,1.84,9.58,3.17,13.82,5.69,5,3,15.32.66,14.37,8.49-.51,4.18-10.58,5-16.68,6-8.63,1.38-17.35,2.21-26.7,3.36a37.73,37.73,0,0,1-6.75-1C199.2,304.75,197.24,301.88,199.92,298.87Zm43.78-32.06c-7.16-2.65-6.34-5.77-2-10.78,19.11-21.83,19-21.92,39.7-1.18a29.24,29.24,0,0,1,2.66,2.68c3.28,4.28,11.17,7.43,8.25,13.33-2.57,5.2-10.19,2.76-15.69,3C265.08,274.18,254.36,270.76,243.7,266.81ZM226,57.2c2.25-2.21,4.25-4.7,6.68-6.68,7.18-5.83,11.9-18.28,21.42-16.82,15.51,2.38,29,11.61,41.19,21.84a4.52,4.52,0,0,1,.52,6.76Q280.57,77.7,265,92.79c-.77.75-2.34.67-3.73,1A49.48,49.48,0,0,1,256.56,91c-10-7.64-19.87-15.46-30-23C221.76,64.41,222.08,61.05,226,57.2ZM164.68,33c16.79-5.55,34-9.12,51.83-7.29,1.7.17,3.59,1.3,3.43,2.2-.57,9.42-20.84,23.1-28.2,20.42-8.83-3.21-17.66-6.42-26.35-10C163.14,37.41,161.18,34.14,164.68,33ZM123.79,61.1c1.53-2.88,5.5-2.37,8.6-2.5,2.53-.11,5.06,0,9.47,0,9.76-.51,20.55,2.84,31.25,6.93,7.09,2.7,6.84,6.31,2.22,11.08-1.32,1.36-2.66,2.7-4,4.06-16.09,16.61-16.09,16.62-32.1.69q-6.06-6-12-12.13C125,67,122.14,64.21,123.79,61.1Zm-24.4,27c.41-3.61,1.59-7.43,6.74-7.66a49.19,49.19,0,0,1,4.31,3.36c3.63,3.48,7.15,7.06,10.71,10.61,17.91,17.89,17.91,17.89-1,35-8.5,7.72-10.15,7.67-13.8-3C102.13,114.08,97.87,101.51,99.39,88.07ZM77.24,172.71c-1.84,1.55-3.53,4.13-6.35,3.14s-2.35-3.95-2.45-6.27c-.08-1.88-.09-3.76-.08-5.64h0c0-1.87,0-3.75,0-5.62a81,81,0,0,1,3-23.08,129.8,129.8,0,0,1,4.44-13.31c.42-1.09,1.23-2.63,2.12-2.83,2.31-.54,2.52,1.59,3,3.19,1.69,5.35,3.22,10.75,5.13,16C93.43,158.62,93.34,159.18,77.24,172.71ZM323.13,313.85c-22.32,17.3-47.42,29.34-75,34.87-67.88,13.6-126.62-5.1-174.63-54.37C39,258.9,21.83,215.45,22.46,163,22.13,122.72,35.92,84.86,62,51.26c3.1-4,5.68-8.67,12-3.77,9,6.94,11.28,11.62,6.09,18.33C64.34,86.22,53.67,109,49,134.22,31.56,228.5,91.43,307.94,172.63,325.35c48.34,10.36,92.84,1.74,132.77-27.91,6.82-5.06,12.4-7.72,19.3.24S332.23,306.81,323.13,313.85Zm7.6-120.59c-7.39-20-7.41-20,7.49-33.09,2.33-2.06,5-5.62,7.78-3.76,1.84,1.23,1.74,5.7,2.05,8.77a93.62,93.62,0,0,1,.07,9.48c.84,11-2.29,21.29-5.16,31.62a6.47,6.47,0,0,1-3.56,3.89c-3.6,1.18-3.71-2.22-4.47-4.37C333.44,201.65,332.26,197.39,330.73,193.26Z"/></svg>